<?xml version="1.0" standalone="no"?>
<!DOCTYPE svg PUBLIC "-//W3C//DTD SVG 20010904//EN"
 "http://www.w3.org/TR/2001/REC-SVG-20010904/DTD/svg10.dtd">
<svg version="1.0" xmlns="http://www.w3.org/2000/svg"
 width="500.000000pt" height="197.000000pt" viewBox="0 0 500.000000 197.000000"
 preserveAspectRatio="xMidYMid meet">

<g transform="translate(0.000000,197.000000) scale(0.100000,-0.100000)"
fill="#000000" stroke="none">
<path d="M570 1915 c0 -34 -1 -35 -40 -35 -35 0 -40 3 -40 23 0 32 -5 35 -43
28 -23 -5 -33 -13 -35 -29 -3 -18 -10 -22 -43 -22 l-40 0 3 -37 c3 -36 5 -38
41 -41 36 -3 37 -4 37 -43 0 -39 0 -39 -40 -39 l-40 0 0 -40 0 -40 40 0 40 0
0 -40 0 -40 -40 0 -40 0 0 -40 0 -40 -45 0 -45 0 0 40 c0 39 -1 40 -35 40 -34
0 -35 1 -35 40 0 39 1 40 35 40 34 0 35 1 35 40 0 39 -1 40 -35 40 -34 0 -35
-1 -35 -40 l0 -40 -40 0 -40 0 0 -40 c0 -36 -3 -40 -24 -40 -25 0 -36 -16 -36
-56 0 -20 5 -24 30 -24 28 0 30 -2 30 -40 0 -38 -2 -40 -30 -40 -25 0 -30 -4
-30 -24 0 -40 11 -56 36 -56 21 0 24 -5 24 -39 0 -22 -5 -41 -12 -43 -8 -3 -9
-11 -3 -24 8 -18 9 -18 12 4 4 18 11 22 44 22 39 0 39 0 39 -40 0 -38 -2 -40
-30 -40 -36 0 -36 -3 -9 -41 24 -34 39 -30 39 12 0 27 3 29 35 29 34 0 35 -1
35 -39 0 -39 -1 -40 -37 -43 l-37 -3 37 -28 37 -28 0 30 c0 30 1 31 45 31 l45
0 0 -40 0 -40 40 0 40 0 0 -40 0 -40 40 0 c29 0 40 -4 40 -15 0 -14 48 -45 70
-45 6 0 10 12 8 28 -3 23 -8 27 -40 30 -37 3 -38 4 -38 43 0 39 0 39 40 39
l40 0 0 -40 0 -40 40 0 c40 0 40 0 40 -39 0 -33 -4 -40 -22 -44 -22 -3 -22 -4
-4 -12 13 -6 21 -5 24 3 2 7 21 12 43 12 39 0 39 0 39 -40 l0 -40 40 0 40 0 0
-40 0 -40 40 0 40 0 0 40 0 40 40 0 40 0 0 -40 0 -40 40 0 40 0 0 40 0 40 40
0 40 0 0 -40 c0 -40 0 -40 39 -40 l38 0 7 71 c4 39 5 73 2 77 -3 3 -6 -11 -6
-31 0 -36 -1 -37 -39 -37 -39 0 -40 1 -43 38 -3 35 -5 37 -40 40 -37 3 -38 4
-38 43 0 39 0 39 40 39 l40 0 0 -40 0 -40 40 0 c43 0 48 8 30 54 -7 20 -16 26
-41 26 l-32 0 5 53 c3 28 3 46 1 40 -3 -8 -22 -13 -44 -13 -39 0 -39 0 -39 39
0 22 5 41 13 44 6 2 -12 2 -40 -1 l-53 -5 0 42 0 41 -40 0 c-33 0 -40 3 -40
19 0 12 -13 26 -32 35 -44 22 -48 21 -48 -19 0 -34 -1 -35 -40 -35 l-40 0 0
40 c0 38 1 40 33 40 l32 1 -25 14 c-32 18 -40 18 -40 0 0 -11 -11 -15 -40 -15
l-40 0 0 40 0 40 -40 0 c-32 0 -40 4 -40 18 0 18 -49 62 -70 62 -5 0 -10 18
-10 40 l0 40 -40 0 -40 0 0 40 0 40 40 0 c38 0 40 -2 40 -31 l0 -30 24 28 25
28 -25 3 c-21 3 -24 9 -24 42 0 38 1 39 38 42 35 3 37 5 40 41 3 36 4 37 43
37 39 0 39 0 39 -40 l0 -40 -40 0 c-39 0 -40 -1 -40 -36 0 -33 2 -36 23 -30
12 3 30 6 40 6 12 0 17 8 17 30 0 28 2 30 39 30 37 0 40 -2 43 -32 3 -27 8
-33 35 -39 39 -8 43 -5 43 38 0 32 1 33 40 33 40 0 40 0 40 -39 0 -33 -4 -40
-22 -44 -13 -2 5 -2 40 1 60 5 62 4 62 -19 0 -18 9 -28 40 -41 l40 -17 0 40
c0 38 1 39 34 39 36 0 46 12 46 56 0 13 5 24 11 24 8 0 39 58 39 75 0 3 -11 5
-25 5 -22 0 -25 -4 -25 -40 l0 -40 -40 0 c-40 0 -40 0 -40 39 0 39 1 40 38 43
35 3 37 5 40 41 l3 37 -40 0 c-41 0 -41 0 -41 39 0 22 5 41 13 44 6 2 -12 2
-40 -1 -48 -4 -53 -3 -53 16 0 22 -18 32 -56 32 -19 0 -24 -5 -24 -25 0 -22
-4 -25 -39 -25 -37 0 -40 2 -43 33 -3 29 -6 32 -40 35 -37 3 -38 3 -38 -32 0
-35 -1 -36 -40 -36 -39 0 -40 1 -40 35 0 34 -1 35 -40 35 -39 0 -40 -1 -40
-35z m-80 -76 l0 -40 38 3 c35 3 37 5 40 41 3 36 4 37 43 37 39 0 39 0 39 -41
l0 -40 38 3 c35 3 37 5 40 41 3 36 4 37 43 37 39 0 39 0 39 -40 l0 -40 40 0
40 0 0 40 0 40 40 0 40 0 0 -40 0 -40 40 0 40 0 0 -40 0 -40 -40 0 -40 0 0
-40 0 -40 40 0 40 0 0 -40 0 -40 -40 0 -40 0 0 40 0 40 -40 0 -40 0 0 40 0 40
-40 0 -40 0 0 -40 0 -40 -40 0 -40 0 0 40 0 40 -40 0 -40 0 0 40 0 40 -40 0
-40 0 0 -40 0 -40 -40 0 -40 0 0 -40 0 -40 -40 0 c-40 0 -40 0 -40 39 0 39 1
40 38 43 35 3 37 5 40 41 l3 37 -40 0 -41 0 0 40 0 40 40 0 40 0 0 -41z m-320
-319 c0 -39 1 -40 34 -40 33 0 35 -2 38 -37 3 -37 4 -38 43 -38 39 0 40 1 43
38 3 36 4 37 43 37 39 0 39 0 39 -40 l0 -40 40 0 40 0 0 -40 0 -40 40 0 40 0
0 -40 0 -40 40 0 40 0 0 -40 0 -40 40 0 40 0 0 -40 0 -40 40 0 40 0 0 40 0 40
40 0 40 0 0 -40 0 -40 40 0 40 0 0 -40 0 -40 40 0 40 0 0 -40 0 -40 -40 0 -40
0 0 -40 0 -40 40 0 40 0 0 -40 0 -40 -40 0 -40 0 0 40 0 40 -40 0 -40 0 0 -40
c0 -40 0 -40 -39 -40 -39 0 -40 1 -43 38 -3 35 -5 37 -40 40 -37 3 -38 4 -38
43 0 39 0 39 -40 39 l-40 0 0 40 0 40 -40 0 -40 0 0 40 0 40 -40 0 -40 0 0
-40 0 -40 -40 0 -40 0 0 40 0 40 -40 0 -40 0 0 40 0 40 -45 0 -45 0 0 40 c0
39 -1 40 -35 40 -34 0 -35 1 -35 40 l0 40 -40 0 -40 0 0 40 0 40 40 0 40 0 0
40 0 40 -40 0 -40 0 0 40 0 40 40 0 40 0 0 -40z"/>
<path d="M730 1759 l0 -40 38 3 c35 3 37 5 40 41 l3 37 -40 0 -41 0 0 -41z"/>
<path d="M890 1760 l0 -40 40 0 40 0 0 40 0 40 -40 0 -40 0 0 -40z"/>
<path d="M170 1360 c0 -39 1 -40 35 -40 34 0 35 1 35 40 0 39 -1 40 -35 40
-34 0 -35 -1 -35 -40z"/>
<path d="M330 1360 l0 -40 40 0 40 0 0 -40 0 -40 -40 0 -40 0 0 -40 0 -40 40
0 40 0 0 -40 0 -40 40 0 40 0 0 40 0 40 40 0 40 0 0 -40 0 -40 40 0 40 0 0
-40 0 -40 40 0 40 0 0 -40 0 -40 40 0 40 0 0 -40 0 -40 40 0 40 0 0 40 0 40
40 0 40 0 0 40 0 40 -40 0 -40 0 0 40 0 40 -40 0 -40 0 0 -40 0 -40 -40 0 -40
0 0 40 0 40 -40 0 -40 0 0 40 0 40 -40 0 -40 0 0 40 0 40 -40 0 -40 0 0 40 0
40 -40 0 -40 0 0 40 0 40 -40 0 -40 0 0 -40z m160 -160 l0 -40 -40 0 -40 0 0
40 0 40 40 0 40 0 0 -40z m400 -240 l0 -40 -40 0 -40 0 0 40 0 40 40 0 40 0 0
-40z"/>
<path d="M244 1296 c-10 -43 1 -58 43 -54 36 3 38 5 38 38 0 33 -2 35 -37 38
-33 3 -38 0 -44 -22z"/>
<path d="M1130 1841 c0 -24 5 -29 31 -35 17 -3 35 -3 40 0 9 5 13 34 5 34 -2
0 -20 7 -40 15 l-36 15 0 -29z"/>
<path d="M208 1826 c-20 -15 -14 -26 13 -26 13 0 19 -9 21 -37 3 -37 4 -38 43
-38 39 0 40 1 43 38 l3 37 -45 0 c-39 0 -46 3 -46 20 0 23 -8 25 -32 6z"/>
<path d="M137 1762 c-24 -26 -21 -44 6 -40 16 2 23 11 25 31 4 31 -8 35 -31 9z"/>
<path d="M77 1674 c-4 -4 -7 -14 -7 -23 0 -11 3 -12 11 -4 6 6 10 16 7 23 -2
6 -7 8 -11 4z"/>
<path d="M244 1626 c-3 -8 -4 -25 -2 -38 3 -20 9 -23 43 -23 39 0 40 1 40 35
0 33 -2 35 -38 38 -26 2 -39 -1 -43 -12z"/>
<path d="M3740 1215 l0 -55 60 0 60 0 0 55 0 55 -60 0 -60 0 0 -55z"/>
<path d="M4166 1260 c-67 -21 -96 -75 -96 -185 l0 -75 -50 0 -50 0 0 -39 0
-40 48 -3 47 -3 3 -318 2 -318 58 3 57 3 3 318 2 317 70 0 69 0 3 33 c2 25 33
-43 141 -318 l138 -349 -16 -42 c-36 -94 -128 -164 -196 -150 l-30 6 3 -48 3
-47 55 -3 c72 -4 129 19 179 73 57 62 75 103 233 513 77 202 144 377 149 390
8 21 7 22 -55 22 l-64 0 -45 -132 c-99 -295 -150 -438 -157 -438 -4 0 -12 19
-19 43 -7 23 -54 151 -103 285 l-91 242 -134 0 -133 0 0 64 c0 87 18 110 89
109 l51 -1 0 43 c0 30 -5 45 -16 49 -22 9 -114 6 -148 -4z"/>
<path d="M3394 1080 l-17 -80 -44 0 -43 0 0 -40 c0 -40 0 -40 39 -40 l40 0 3
-278 c3 -304 4 -310 65 -349 29 -19 122 -24 176 -10 26 7 28 11 25 49 l-3 42
-50 -2 c-92 -5 -90 -13 -93 287 l-3 261 66 0 65 0 0 40 0 40 -65 0 -65 0 0 80
0 80 -40 0 -39 0 -17 -80z"/>
<path d="M1672 1010 c-56 -12 -107 -44 -129 -81 -25 -41 -33 -36 -33 21 l0 50
-61 0 c-59 0 -61 -1 -55 -22 3 -13 6 -238 6 -500 l0 -478 60 0 60 0 0 190 0
190 36 -40 c59 -65 165 -86 271 -55 64 19 123 82 150 158 26 76 26 329 -1 405
-43 126 -165 191 -304 162z m124 -109 c65 -39 97 -182 76 -343 -12 -100 -32
-142 -83 -176 -29 -20 -44 -23 -96 -20 -74 5 -107 25 -143 89 -23 41 -25 53
-25 184 0 129 2 144 25 190 35 69 76 95 154 95 42 0 71 -6 92 -19z"/>
<path d="M2350 1006 c-74 -16 -111 -37 -154 -87 -56 -66 -71 -123 -71 -274 0
-154 15 -210 75 -278 62 -71 115 -91 235 -92 90 0 106 3 157 28 98 48 141 119
160 261 9 63 8 105 0 166 -25 175 -91 252 -237 279 -71 13 -94 13 -165 -3z
m193 -103 c19 -11 42 -38 57 -68 23 -46 25 -61 25 -190 0 -129 -2 -144 -25
-190 -19 -38 -35 -55 -70 -72 -83 -42 -185 -25 -232 38 -42 56 -53 104 -52
229 1 96 4 123 23 167 13 28 31 59 41 68 51 46 168 55 233 18z"/>
<path d="M3149 1011 c-51 -16 -69 -32 -98 -94 l-30 -62 -1 73 0 72 -55 0 -55
0 0 -360 0 -360 59 0 60 0 3 248 c3 234 4 249 26 294 30 61 63 82 130 82 l52
0 0 52 c0 64 -20 76 -91 55z"/>
<path d="M295 986 c11 -8 23 -12 28 -9 13 8 -3 23 -26 23 -20 0 -20 0 -2 -14z"/>
<path d="M3740 640 l0 -361 58 3 57 3 3 358 2 357 -60 0 -60 0 0 -360z"/>
<path d="M747 631 c-12 -27 -28 -43 -57 -56 -26 -12 -40 -25 -40 -37 0 -14 -8
-18 -39 -18 -25 0 -41 5 -45 15 -3 9 -19 15 -41 15 -24 0 -35 -4 -35 -15 0
-11 -11 -15 -39 -15 -33 0 -40 4 -43 22 -2 18 -12 24 -40 29 -36 6 -38 5 -38
-23 0 -26 3 -28 40 -28 l40 0 0 -40 0 -40 40 0 40 0 0 40 0 40 40 0 40 0 0
-40 0 -40 40 0 40 0 0 40 0 40 40 0 40 0 0 -40 0 -40 41 0 40 0 -3 38 c-3 35
-5 37 -40 40 -36 3 -38 5 -38 37 0 32 2 34 38 37 35 3 37 5 40 41 3 33 1 37
-20 37 -18 0 -28 -9 -41 -39z"/>
<path d="M890 630 l0 -40 -40 0 c-39 0 -40 -1 -40 -35 0 -34 1 -35 40 -35 l40
0 0 -40 0 -40 40 0 40 0 0 40 0 40 40 0 40 0 0 -40 0 -40 41 0 40 0 -3 38 c-3
35 -5 37 -40 40 -36 3 -38 5 -38 37 0 32 2 34 38 37 35 3 37 5 40 41 l3 37
-40 0 -41 0 0 -40 0 -40 -40 0 -40 0 0 40 0 40 -40 0 -40 0 0 -40z m80 -75 c0
-34 -1 -35 -40 -35 -39 0 -40 1 -40 35 0 34 1 35 40 35 39 0 40 -1 40 -35z"/>
<path d="M1212 640 c0 -19 2 -27 5 -17 2 9 2 25 0 35 -3 9 -5 1 -5 -18z"/>
<path d="M90 625 c0 -33 -2 -35 -35 -35 -33 0 -35 -2 -35 -35 0 -33 2 -35 35
-35 34 0 35 -1 35 -40 l0 -40 40 0 40 0 0 40 c0 39 1 40 35 40 33 0 35 2 35
35 0 33 -2 35 -33 35 -23 0 -35 6 -42 21 -6 12 -25 27 -42 35 l-33 13 0 -34z
m80 -70 c0 -34 -1 -35 -40 -35 -39 0 -40 1 -40 35 0 34 1 35 40 35 39 0 40 -1
40 -35z"/>
<path d="M1130 555 c0 -32 2 -35 29 -35 33 0 35 2 45 43 6 26 5 27 -34 27 -39
0 -40 -1 -40 -35z"/>
<path d="M248 513 c-2 -4 -5 -23 -7 -40 -2 -33 -2 -33 44 -33 l46 0 -3 38 c-3
35 -5 37 -40 40 -20 2 -38 -1 -40 -5z"/>
<path d="M20 390 c0 -39 1 -40 35 -40 34 0 35 -1 35 -39 0 -33 -4 -40 -22 -44
-21 -3 -21 -4 -4 -12 11 -5 21 -4 25 3 3 6 22 12 41 14 33 3 35 6 38 41 3 35
5 37 37 37 32 0 34 -2 37 -37 3 -37 4 -38 43 -38 39 0 40 1 43 38 3 36 4 37
43 37 39 0 39 0 39 -40 l0 -40 -40 0 -40 0 0 -41 0 -40 38 3 c35 3 37 5 40 40
3 35 5 37 40 40 35 3 37 5 40 41 3 36 4 37 43 37 39 0 39 0 39 -40 l0 -40 -40
0 -40 0 0 -40 0 -40 -40 0 c-22 0 -40 -4 -40 -10 0 -13 63 -13 76 -1 5 5 25
11 44 13 33 3 35 6 38 41 3 36 4 37 43 37 39 0 39 0 39 -40 l0 -40 -40 0 c-22
0 -40 -4 -40 -10 0 -5 18 -10 40 -10 22 0 40 5 40 10 0 6 18 10 40 10 40 0 40
0 40 39 0 39 1 40 38 43 35 3 37 5 40 41 3 36 4 37 43 37 39 0 39 0 39 -40 l0
-40 -40 0 c-39 0 -40 -1 -40 -34 l0 -35 38 13 c25 9 38 20 40 34 3 18 10 22
43 22 39 0 39 0 39 40 0 40 0 40 39 40 22 0 41 -5 43 -12 3 -9 6 -9 12 0 4 7
2 12 -3 12 -6 0 -11 18 -11 40 l0 40 -40 0 -40 0 0 -40 0 -40 -40 0 -40 0 0
40 0 40 -40 0 -40 0 0 -40 0 -40 -40 0 -40 0 0 40 0 40 -40 0 -40 0 0 -40 0
-40 -40 0 -40 0 0 40 0 40 -40 0 -40 0 0 -40 0 -40 -40 0 -40 0 0 40 0 40 -40
0 -40 0 0 -40 0 -40 -45 0 -45 0 0 40 c0 39 -1 40 -35 40 -34 0 -35 -1 -35
-40 l0 -40 -40 0 -40 0 0 40 c0 39 -1 40 -35 40 -34 0 -35 -1 -35 -40z m710
-80 l0 -40 -40 0 -40 0 0 40 0 40 40 0 40 0 0 -40z"/>
<path d="M170 245 c0 -18 7 -28 26 -35 39 -15 44 -13 44 25 0 33 -2 35 -35 35
-31 0 -35 -3 -35 -25z"/>
</g>
</svg>
