<?xml version="1.0" standalone="no"?>
<!DOCTYPE svg PUBLIC "-//W3C//DTD SVG 20010904//EN"
 "http://www.w3.org/TR/2001/REC-SVG-20010904/DTD/svg10.dtd">
<svg version="1.0" xmlns="http://www.w3.org/2000/svg"
 width="110.000000pt" height="162.000000pt" viewBox="0 0 110.000000 162.000000"
 preserveAspectRatio="xMidYMid meet">

<g transform="translate(0.000000,162.000000) scale(0.100000,-0.100000)"
fill="#000000" stroke="none">
<path d="M500 1585 c0 -33 -2 -35 -35 -35 -31 0 -35 3 -35 26 0 23 -3 25 -32
22 -25 -2 -34 -8 -36 -25 -3 -19 -10 -23 -38 -23 -32 0 -34 -2 -34 -36 0 -34
1 -35 33 -32 28 3 32 7 35 36 3 29 6 32 38 32 32 0 34 -2 34 -35 0 -33 -2 -35
-35 -35 -33 0 -35 -2 -35 -35 0 -33 -2 -35 -35 -35 -33 0 -35 -2 -35 -35 0
-33 2 -35 35 -35 33 0 35 2 35 35 0 33 2 35 35 35 33 0 35 -2 35 -35 0 -33 2
-35 35 -35 33 0 35 2 35 35 0 34 1 35 40 35 39 0 40 -1 40 -35 0 -33 2 -35 35
-35 33 0 35 2 35 35 0 33 2 35 35 35 33 0 35 -2 35 -35 0 -33 2 -35 35 -35 33
0 35 2 35 35 0 34 1 35 40 35 39 0 40 -1 40 -35 0 -33 2 -35 35 -35 33 0 35 2
35 35 0 33 2 35 35 35 33 0 35 -2 35 -35 0 -45 24 -47 39 -4 14 41 15 39 -14
39 -22 0 -25 4 -25 35 0 33 -2 35 -35 35 -33 0 -35 2 -35 34 0 19 6 36 13 39
6 2 -9 2 -35 -1 -43 -4 -48 -3 -48 16 0 12 -9 22 -22 26 -45 12 -58 7 -58 -19
0 -22 -4 -25 -34 -25 -32 0 -35 3 -38 33 -3 28 -7 32 -35 35 -32 3 -33 2 -33
-32 0 -34 -2 -36 -35 -36 -33 0 -35 -2 -35 -35 0 -34 -1 -35 -40 -35 -39 0
-40 1 -40 34 0 33 2 35 38 38 34 3 37 6 40 36 3 31 2 32 -37 32 -40 0 -41 -1
-41 -35z m222 -67 c3 -29 7 -33 36 -36 31 -3 32 -2 32 32 0 35 1 36 39 36 37
0 40 -2 43 -32 3 -29 7 -33 36 -36 29 -3 32 -6 32 -38 0 -32 -2 -34 -35 -34
-33 0 -35 2 -35 35 0 34 -1 35 -40 35 -39 0 -40 -1 -40 -35 0 -33 -2 -35 -35
-35 -33 0 -35 2 -35 35 0 33 -2 35 -35 35 -33 0 -35 -2 -35 -35 0 -33 -2 -35
-35 -35 -33 0 -35 2 -35 34 0 32 3 35 33 38 28 3 32 7 35 36 3 29 6 32 37 32
31 0 34 -3 37 -32z m-222 -73 c0 -33 -2 -35 -35 -35 -33 0 -35 2 -35 35 0 33
2 35 35 35 33 0 35 -2 35 -35z"/>
<path d="M1010 1516 c0 -18 7 -25 31 -30 58 -11 68 17 14 40 -45 18 -45 18
-45 -10z"/>
<path d="M177 1506 c-12 -10 -15 -16 -7 -21 16 -10 40 2 40 20 0 18 -9 19 -33
1z"/>
<path d="M210 1445 c0 -33 -2 -35 -35 -35 -33 0 -35 -2 -35 -35 0 -33 2 -35
35 -35 33 0 35 2 35 35 0 33 2 35 35 35 33 0 35 2 35 35 0 33 -2 35 -35 35
-33 0 -35 -2 -35 -35z"/>
<path d="M107 1442 c-23 -25 -21 -34 6 -30 14 2 23 11 25 26 4 27 -9 28 -31 4z"/>
<path d="M50 1355 c0 -8 5 -15 10 -15 6 0 10 7 10 15 0 8 -4 15 -10 15 -5 0
-10 -7 -10 -15z"/>
<path d="M70 1295 c0 -30 -3 -35 -24 -35 -16 0 -26 -7 -30 -22 -10 -41 -7 -48
24 -48 28 0 30 -3 30 -35 0 -33 -2 -35 -31 -35 -30 0 -31 -1 -25 -32 8 -39 20
-53 40 -45 10 4 16 19 16 42 0 33 2 35 35 35 34 0 35 -1 35 -40 0 -39 -1 -40
-35 -40 -33 0 -35 -2 -35 -35 0 -33 2 -35 35 -35 33 0 35 -2 35 -34 0 -31 -3
-35 -31 -38 l-31 -3 22 -27 c28 -36 40 -35 40 2 0 28 3 30 35 30 33 0 35 -2
35 -35 0 -32 -2 -35 -30 -35 -36 0 -38 -13 -8 -34 31 -22 38 -20 38 9 0 22 4
25 35 25 33 0 35 2 35 35 0 33 -2 35 -35 35 -33 0 -35 2 -35 35 0 33 2 35 35
35 33 0 35 2 35 35 0 33 -2 35 -35 35 -33 0 -35 -2 -35 -35 0 -33 -2 -35 -35
-35 -33 0 -35 2 -35 34 0 32 3 35 33 38 29 3 32 6 35 41 3 35 5 37 38 37 32 0
34 2 34 35 0 33 -2 35 -35 35 -33 0 -35 2 -35 35 0 33 2 35 34 35 35 0 51 -19
44 -51 -2 -10 9 -15 35 -17 35 -3 37 -5 37 -38 0 -32 -2 -34 -35 -34 -34 0
-35 -1 -35 -40 0 -39 1 -40 35 -40 33 0 35 -2 35 -35 0 -33 2 -35 35 -35 33 0
35 -2 35 -35 0 -33 -2 -35 -34 -35 -32 0 -35 3 -38 33 -3 28 -7 32 -35 35 -32
3 -33 2 -33 -32 0 -34 2 -36 35 -36 33 0 35 -2 35 -35 0 -33 -2 -35 -35 -35
-34 0 -35 -1 -35 -40 0 -39 1 -40 35 -40 33 0 35 -2 35 -35 0 -33 2 -35 35
-35 22 0 35 -5 35 -13 0 -7 16 -21 35 -30 l35 -17 0 30 c0 28 2 30 40 30 39 0
40 -1 40 -35 0 -33 2 -35 35 -35 34 0 35 -1 35 -40 0 -39 1 -40 35 -40 33 0
35 -2 35 -35 0 -29 -4 -35 -20 -35 -11 0 -23 -8 -26 -18 -3 -9 -10 -25 -15
-34 -8 -16 -4 -18 26 -18 34 0 35 -1 35 -40 0 -39 -1 -40 -35 -40 -34 0 -35 2
-35 36 0 31 -3 35 -17 29 -10 -4 -26 -10 -35 -12 -11 -3 -18 -15 -18 -29 0
-21 -5 -24 -40 -24 -27 0 -40 4 -40 14 0 13 -28 26 -57 26 -7 0 -13 -9 -13
-20 0 -16 -7 -20 -35 -20 -28 0 -35 4 -35 19 0 22 -4 26 -42 35 -26 6 -28 4
-28 -24 0 -28 3 -30 35 -30 33 0 35 -2 35 -35 0 -33 -2 -35 -35 -35 -33 0 -35
-2 -35 -35 0 -33 2 -35 35 -35 34 0 35 -1 35 -40 0 -39 1 -40 35 -40 33 0 35
-2 35 -35 0 -33 -2 -35 -35 -35 -19 0 -35 -4 -35 -10 0 -5 16 -10 35 -10 19 0
35 5 35 10 0 6 16 10 35 10 19 0 35 -4 35 -10 0 -13 67 -13 75 0 3 6 22 10 41
10 32 0 34 2 34 35 0 33 2 35 35 35 32 0 35 -2 35 -30 0 -16 2 -30 4 -30 25 0
66 26 66 41 0 16 7 19 40 19 l40 0 0 40 c0 39 1 40 34 40 19 0 36 -6 39 -12 2
-8 8 -9 13 -4 5 5 4 11 -3 13 -7 3 -13 21 -13 40 0 35 1 35 38 32 l37 -4 -4
37 c-3 36 -5 38 -37 38 -33 0 -34 1 -34 40 0 39 1 40 35 40 33 0 35 2 35 35 0
33 -2 35 -35 35 -33 0 -35 2 -35 35 0 33 2 35 34 35 32 0 35 -3 38 -32 3 -30
6 -33 40 -36 32 -3 37 -7 40 -30 2 -15 3 16 3 68 0 52 -1 80 -3 63 -3 -31 -6
-33 -43 -33 -39 0 -39 0 -39 40 l0 40 40 0 c39 0 40 1 34 28 -9 37 -17 44 -45
40 -19 -2 -25 -10 -27 -35 -3 -30 -6 -33 -38 -33 -32 0 -34 2 -34 35 0 33 2
35 35 35 33 0 35 2 35 34 0 19 5 36 12 38 9 3 9 6 0 12 -7 4 -12 2 -12 -3 0
-6 -16 -11 -36 -11 l-36 0 3 43 4 42 -37 -3 c-35 -4 -37 -3 -40 30 -3 30 -6
33 -40 36 -28 2 -37 8 -40 23 -2 12 -17 26 -35 34 l-33 14 0 -34 c0 -33 -2
-35 -35 -35 -33 0 -35 2 -35 35 0 33 2 35 33 35 l32 1 -25 14 c-32 18 -40 18
-40 0 0 -10 -11 -15 -35 -15 -33 0 -35 2 -35 35 0 34 -1 35 -40 35 -32 0 -40
4 -40 18 0 20 -39 62 -58 62 -7 0 -12 15 -12 35 0 33 -2 35 -35 35 -33 0 -35
2 -35 35 0 33 2 35 35 35 31 0 35 -3 35 -27 l0 -28 20 25 c19 25 19 25 0 28
-15 3 -20 11 -20 38 0 32 -2 34 -35 34 -33 0 -35 -2 -35 -35 0 -34 -1 -35 -40
-35 -39 0 -40 1 -40 35 0 33 -2 35 -35 35 -33 0 -35 -2 -35 -35 0 -33 -2 -35
-35 -35 -33 0 -35 -2 -35 -35 0 -33 -2 -35 -35 -35 -33 0 -35 2 -35 34 0 32 3
35 33 38 28 3 32 7 35 36 3 31 2 32 -32 32 -34 0 -36 -2 -36 -35z m140 -140
c0 -33 -2 -35 -35 -35 -33 0 -35 2 -35 35 0 33 2 35 35 35 33 0 35 -2 35 -35z
m220 -75 c0 -39 1 -40 35 -40 33 0 35 -2 35 -35 0 -34 1 -35 40 -35 39 0 40
-1 40 -35 0 -33 2 -35 35 -35 33 0 35 -2 35 -35 0 -33 2 -35 35 -35 33 0 35 2
35 35 0 33 2 35 35 35 33 0 35 -2 35 -35 0 -34 1 -35 40 -35 l40 0 0 -40 c0
-39 1 -40 35 -40 33 0 35 -2 35 -35 0 -33 -2 -35 -35 -35 -33 0 -35 -2 -35
-35 0 -33 2 -35 35 -35 34 0 35 -1 35 -40 0 -39 -1 -40 -35 -40 -33 0 -35 -2
-35 -35 0 -33 2 -35 35 -35 33 0 35 -2 35 -35 0 -33 -2 -35 -35 -35 -34 0 -35
-1 -35 -40 0 -39 1 -40 35 -40 33 0 35 -2 35 -35 0 -33 -2 -35 -35 -35 -33 0
-35 -2 -35 -35 0 -34 -1 -35 -40 -35 l-40 0 0 -40 c0 -39 -1 -40 -35 -40 -34
0 -35 1 -35 40 0 39 -1 40 -35 40 -34 0 -35 -1 -35 -40 0 -39 -1 -40 -35 -40
-33 0 -35 -2 -35 -35 0 -34 -1 -35 -40 -35 -39 0 -40 1 -40 35 0 33 -2 35 -35
35 -34 0 -35 1 -35 40 0 39 -1 40 -35 40 -33 0 -35 2 -35 35 0 33 2 35 35 35
33 0 35 2 35 35 0 33 2 35 35 35 33 0 35 -2 35 -36 0 -35 1 -35 38 -32 34 3
37 6 40 36 3 29 6 32 38 32 32 0 34 -2 34 -35 0 -33 2 -35 35 -35 33 0 35 2
35 35 0 33 2 35 35 35 34 0 35 1 35 40 0 39 -1 40 -35 40 -33 0 -35 2 -35 35
0 33 2 35 35 35 33 0 35 2 35 35 0 33 -2 35 -35 35 -34 0 -35 1 -35 40 0 39
-1 40 -35 40 -33 0 -35 2 -35 35 0 33 -2 35 -35 35 -33 0 -35 2 -35 35 0 34
-1 35 -40 35 -39 0 -40 -1 -40 -35 0 -33 -2 -35 -35 -35 -33 0 -35 2 -35 35 0
33 -2 35 -35 35 -34 0 -35 1 -35 40 0 39 1 40 35 40 33 0 35 2 35 35 0 33 2
35 35 35 33 0 35 2 35 35 0 33 -2 35 -35 35 -33 0 -35 2 -35 35 0 33 -2 35
-35 35 -34 0 -35 1 -35 40 0 39 1 40 35 40 34 0 35 -1 35 -40z"/>
<path d="M500 865 c0 -33 -2 -35 -35 -35 -34 0 -35 -1 -35 -40 0 -39 1 -40 35
-40 34 0 35 1 35 40 l0 40 40 0 40 0 0 -40 c0 -39 1 -40 35 -40 33 0 35 -2 35
-35 0 -33 2 -35 35 -35 33 0 35 -2 35 -35 0 -33 2 -35 35 -35 33 0 35 2 35 35
0 34 1 35 40 35 39 0 40 1 40 35 0 34 -1 35 -40 35 l-40 0 0 40 c0 39 -1 40
-35 40 -34 0 -35 -1 -35 -40 0 -39 -1 -40 -35 -40 -34 0 -35 1 -35 40 0 39 -1
40 -35 40 -33 0 -35 2 -35 35 0 34 -1 35 -40 35 -39 0 -40 -1 -40 -35z m290
-150 c0 -33 -2 -35 -35 -35 -33 0 -35 2 -35 35 0 33 2 35 35 35 33 0 35 -2 35
-35z"/>
<path d="M794 596 c-3 -8 -4 -25 -2 -38 2 -19 9 -23 38 -23 33 0 35 2 38 38 3
36 3 37 -33 37 -22 0 -38 -6 -41 -14z"/>
<path d="M797 453 c-4 -3 -7 -19 -7 -35 0 -26 3 -28 40 -28 39 0 40 1 40 35 0
33 -2 35 -33 35 -19 0 -37 -3 -40 -7z"/>
<path d="M792 278 c3 -30 6 -33 41 -36 36 -3 37 -3 37 32 0 35 -1 36 -41 36
-39 0 -40 -1 -37 -32z"/>
<path d="M430 205 c0 -33 2 -35 35 -35 34 0 35 -1 35 -41 l0 -40 38 3 c35 3
37 5 40 41 3 35 5 37 38 37 32 0 34 2 34 35 0 33 -2 35 -35 35 -33 0 -35 -2
-35 -35 0 -34 -1 -35 -40 -35 -39 0 -40 1 -40 35 0 33 -2 35 -35 35 -33 0 -35
-2 -35 -35z"/>
<path d="M720 205 c0 -33 2 -35 35 -35 33 0 35 2 35 35 0 33 -2 35 -35 35 -33
0 -35 -2 -35 -35z"/>
<path d="M500 1299 c0 -29 1 -30 33 -24 43 10 47 13 47 36 0 16 -7 19 -40 19
-38 0 -40 -2 -40 -31z"/>
<path d="M650 1306 c0 -24 16 -36 51 -36 14 0 19 7 19 30 0 28 -3 30 -35 30
-30 0 -35 -3 -35 -24z"/>
<path d="M792 1298 c3 -30 6 -33 38 -33 32 0 35 3 38 33 3 31 3 32 -38 32 -41
0 -41 -1 -38 -32z"/>
<path d="M940 1295 c0 -33 -2 -35 -36 -35 -30 0 -35 -3 -32 -21 2 -12 16 -26
36 -34 l32 -14 0 34 c0 31 3 34 33 37 28 3 32 7 35 36 3 31 2 32 -32 32 -34 0
-36 -2 -36 -35z"/>
<path d="M50 956 c0 -8 5 -18 10 -21 6 -3 10 1 10 9 0 8 -4 18 -10 21 -5 3
-10 -1 -10 -9z"/>
<path d="M255 740 c3 -5 10 -10 16 -10 5 0 9 5 9 10 0 6 -7 10 -16 10 -8 0
-12 -4 -9 -10z"/>
<path d="M545 600 c3 -5 13 -10 21 -10 8 0 12 5 9 10 -3 6 -13 10 -21 10 -8 0
-12 -4 -9 -10z"/>
<path d="M70 416 c0 -23 -4 -26 -35 -26 -34 0 -35 -1 -35 -40 0 -39 1 -40 35
-40 33 0 35 -2 35 -36 0 -34 1 -35 33 -32 28 3 32 7 35 36 3 29 6 32 38 32 32
0 34 -2 34 -35 0 -33 -2 -35 -35 -35 -33 0 -35 -2 -35 -35 0 -33 -2 -35 -34
-35 -32 0 -35 3 -38 33 -3 28 -7 32 -36 35 -31 3 -32 2 -32 -32 0 -34 2 -36
35 -36 34 0 35 -1 35 -41 0 -39 1 -40 33 -37 29 3 32 6 35 40 3 36 5 38 38 38
33 0 34 -1 34 -40 0 -39 -1 -40 -35 -40 -30 0 -35 -3 -35 -24 0 -24 16 -36 51
-36 14 0 19 7 19 30 0 28 3 30 35 30 34 0 35 1 35 40 0 39 -1 40 -35 40 -33 0
-35 2 -35 35 0 33 2 35 35 35 33 0 35 2 35 35 0 33 -2 35 -35 35 -34 0 -35 1
-35 40 0 38 -2 40 -31 40 -18 0 -38 8 -47 19 -10 11 -27 22 -39 26 -20 5 -23
3 -23 -19z m70 -66 c0 -39 -1 -40 -35 -40 -34 0 -35 1 -35 40 0 39 1 40 35 40
34 0 35 -1 35 -40z"/>
<path d="M1014 376 c-12 -32 0 -61 28 -64 23 -3 28 1 36 30 5 18 7 36 5 41 -7
13 -63 7 -69 -7z"/>
<path d="M30 86 c0 -2 7 -6 15 -10 8 -3 15 -1 15 4 0 6 -7 10 -15 10 -8 0 -15
-2 -15 -4z"/>
<path d="M290 55 c0 -35 1 -36 33 -33 28 3 32 6 32 33 0 27 -4 30 -32 33 -32
3 -33 2 -33 -33z"/>
</g>
</svg>
